<svg xmlns="http://www.w3.org/2000/svg" width="1080" height="1080" viewBox="0 0 1080 1080" role="img" aria-labelledby="title desc">
  <title id="title">One Time Life Travel social logo</title>
  <desc id="desc">Gold Eye of Horus inspired travel emblem with One Time Life Travel lettering.</desc>
  <defs>
    <radialGradient id="bg" cx="50%" cy="35%" r="75%">
      <stop offset="0" stop-color="#173f49"/>
      <stop offset="1" stop-color="#071b25"/>
    </radialGradient>
    <linearGradient id="gold" x1="0" y1="0" x2="1" y2="1">
      <stop offset="0" stop-color="#f4d58b"/>
      <stop offset="0.5" stop-color="#c7953d"/>
      <stop offset="1" stop-color="#f0c96b"/>
    </linearGradient>
    <filter id="glow" x="-30%" y="-30%" width="160%" height="160%">
      <feGaussianBlur stdDeviation="10" result="blur"/>
      <feMerge><feMergeNode in="blur"/><feMergeNode in="SourceGraphic"/></feMerge>
    </filter>
  </defs>
  <rect width="1080" height="1080" rx="170" fill="url(#bg)"/>
  <circle cx="540" cy="470" r="356" fill="none" stroke="#d8ae5c" stroke-opacity=".18" stroke-width="2"/>
  <circle cx="540" cy="470" r="320" fill="none" stroke="#d8ae5c" stroke-opacity=".18" stroke-width="1" stroke-dasharray="4 18"/>
  <path d="M180 760c120-58 225-67 360-20 135 47 240 38 360-20" fill="none" stroke="#d8ae5c" stroke-opacity=".22" stroke-width="3"/>
  <path d="M180 793c120-58 225-67 360-20 135 47 240 38 360-20" fill="none" stroke="#d8ae5c" stroke-opacity=".12" stroke-width="2"/>
  <g transform="translate(290 210)" fill="none" stroke="url(#gold)" stroke-linecap="round" stroke-linejoin="round" filter="url(#glow)">
    <path d="M0 245c83-124 239-176 417-91l60 35-60 36c-178-85-334-33-417 91 37-25 75-37 120-37 77 0 137 35 189 91-87 21-160 12-218-24-39-24-67-60-91-101Z" stroke-width="12"/>
    <circle cx="226" cy="246" r="22" fill="url(#gold)" stroke="none"/>
    <path d="M238 303c13 49 7 99-31 146M25 258l-61 61" stroke-width="12"/>
    <path d="M80 398c83 44 177 55 283 31" stroke-width="6" opacity=".65"/>
  </g>
  <text x="540" y="720" text-anchor="middle" fill="#f8f1df" font-family="Georgia, 'Times New Roman', serif" font-size="70" font-weight="700" letter-spacing="14">ONE TIME LIFE</text>
  <text x="540" y="792" text-anchor="middle" fill="url(#gold)" font-family="Arial, sans-serif" font-size="32" font-weight="700" letter-spacing="24">TRAVEL</text>
  <path d="M310 838h460" stroke="#d8ae5c" stroke-opacity=".5" stroke-width="2"/>
  <circle cx="285" cy="838" r="4" fill="#d8ae5c"/><circle cx="795" cy="838" r="4" fill="#d8ae5c"/>
</svg>
